<svg width="16" height="16" viewBox="0 0 16 16" fill="none" xmlns="http://www.w3.org/2000/svg">
<path d="M15.8047 10.8837C15.6797 10.7587 15.5102 10.6885 15.3334 10.6885C15.1566 10.6885 14.9871 10.7587 14.8621 10.8837L11.1107 14.6357L9.31872 12.867C9.19495 12.7401 9.02586 12.6676 8.84864 12.6655C8.67141 12.6633 8.50058 12.7316 8.37372 12.8553C8.24686 12.9791 8.17436 13.1482 8.17217 13.3254C8.16998 13.5026 8.23829 13.6735 8.36205 13.8003L10.1914 15.6003C10.3061 15.724 10.4447 15.8233 10.5988 15.892C10.7529 15.9607 10.9193 15.9976 11.0881 16.0003H11.1101C11.2754 16.0009 11.4393 15.9686 11.592 15.9053C11.7448 15.842 11.8835 15.749 12.0001 15.6317L15.8047 11.8263C15.9297 11.7013 15.9999 11.5318 15.9999 11.355C15.9999 11.1782 15.9297 11.0087 15.8047 10.8837Z" fill="#616576"/>
<path d="M7.39333 14.6389C6.10603 14.5213 4.88069 14.032 3.86648 13.2305C2.85228 12.429 2.09297 11.3499 1.68098 10.1247C1.269 8.89939 1.22211 7.58078 1.54604 6.32936C1.86996 5.07793 2.55072 3.94767 3.50544 3.07617C4.46016 2.20468 5.64765 1.62954 6.92335 1.42077C8.19905 1.21201 9.50793 1.37863 10.6906 1.90035C11.8734 2.42206 12.8789 3.27637 13.5848 4.35927C14.2907 5.44216 14.6666 6.70693 14.6667 7.9996C14.6667 8.20427 14.6567 8.40693 14.6393 8.60693C14.6312 8.69434 14.6404 8.7825 14.6664 8.86635C14.6924 8.9502 14.7347 9.02809 14.7909 9.09554C14.847 9.163 14.916 9.2187 14.9938 9.25943C15.0715 9.30017 15.1566 9.32515 15.244 9.33293C15.3314 9.34173 15.4196 9.33297 15.5036 9.30719C15.5875 9.2814 15.6655 9.2391 15.7329 9.18278C15.8003 9.12645 15.8557 9.05723 15.896 8.97918C15.9362 8.90113 15.9605 8.81582 15.9673 8.72827C15.9887 8.48627 16 8.24427 16 7.9996C15.9999 6.44834 15.5488 4.93056 14.7017 3.63106C13.8545 2.33156 12.6478 1.30639 11.2285 0.680367C9.80912 0.0543462 8.2384 -0.14552 6.70752 0.105102C5.17664 0.355724 3.75164 1.04602 2.60603 2.09195C1.46041 3.13789 0.643599 4.49433 0.255034 5.99614C-0.133531 7.49794 -0.0770852 9.08033 0.4175 10.5506C0.912085 12.0209 1.82347 13.3157 3.0407 14.2774C4.25793 15.239 5.72849 15.826 7.27333 15.9669C7.294 15.9669 7.314 15.9669 7.334 15.9669C7.51081 15.9748 7.68351 15.9121 7.81409 15.7927C7.94468 15.6732 8.02247 15.5067 8.03033 15.3299C8.0382 15.1531 7.97551 14.9804 7.85605 14.8498C7.73659 14.7193 7.57015 14.6415 7.39333 14.6336V14.6389Z" fill="#616576"/>
<path d="M7.33339 4.66667V7.724L5.52872 9.52867C5.46505 9.59016 5.41426 9.66373 5.37932 9.74506C5.34438 9.8264 5.32599 9.91388 5.32522 10.0024C5.32445 10.0909 5.34132 10.1787 5.37484 10.2606C5.40836 10.3426 5.45786 10.417 5.52046 10.4796C5.58305 10.5422 5.65749 10.5917 5.73942 10.6252C5.82135 10.6587 5.90914 10.6756 5.99765 10.6748C6.08617 10.6741 6.17365 10.6557 6.25499 10.6207C6.33633 10.5858 6.40989 10.535 6.47139 10.4713L8.47139 8.47133C8.59642 8.34634 8.66668 8.1768 8.66672 8V4.66667C8.66672 4.48986 8.59648 4.32029 8.47146 4.19526C8.34643 4.07024 8.17686 4 8.00005 4C7.82324 4 7.65367 4.07024 7.52865 4.19526C7.40363 4.32029 7.33339 4.48986 7.33339 4.66667Z" fill="#616576"/>
</svg>
