<svg width="14" height="14" viewBox="0 0 14 14" fill="none" xmlns="http://www.w3.org/2000/svg">
<path d="M12.0438 13.2879H1.95599C1.60103 13.2876 1.25283 13.1979 0.948701 13.0284C0.644576 12.8589 0.395993 12.6159 0.229592 12.3255C0.0631904 12.0352 -0.0147556 11.7083 0.00410698 11.3801C0.0229695 11.0518 0.13793 10.7345 0.336667 10.4621L1.07459 9.45057C1.26667 9.18713 1.3687 8.87624 1.36741 8.55837V5.3421C1.34612 3.98259 1.89252 2.66798 2.8926 1.67258C3.89269 0.677176 5.2692 0.0778735 6.73491 -0.000276722C7.4963 -0.0329122 8.25693 0.0777939 8.9708 0.325148C9.68468 0.572502 10.337 0.951365 10.8882 1.43883C11.4395 1.92629 11.8783 2.51223 12.1781 3.16122C12.4779 3.81021 12.6324 4.50876 12.6324 5.21464V8.55837C12.6311 8.87624 12.7332 9.18713 12.9252 9.45057L13.6632 10.4621C13.8619 10.7345 13.9769 11.0518 13.9957 11.3801C14.0146 11.7083 13.9366 12.0352 13.7702 12.3255C13.6038 12.6159 13.3553 12.8589 13.0511 13.0284C12.747 13.1979 12.3988 13.2876 12.0438 13.2879ZM7.00138 1.35566H6.7964C5.70823 1.41906 4.68849 1.86902 3.94981 2.61172C3.21113 3.35443 2.81053 4.33254 2.83154 5.3421V8.55837C2.83262 9.14696 2.64288 9.7223 2.28689 10.2099L1.54897 11.2214C1.49804 11.2897 1.46861 11.3697 1.46396 11.4525C1.4593 11.5354 1.47961 11.6178 1.52261 11.6906C1.56319 11.7644 1.62533 11.8261 1.70195 11.8688C1.77857 11.9114 1.8666 11.9333 1.95599 11.9319H12.0438C12.1332 11.9333 12.2213 11.9114 12.2979 11.8688C12.3745 11.8261 12.4366 11.7644 12.4772 11.6906C12.5202 11.6178 12.5405 11.5354 12.5359 11.4525C12.5312 11.3697 12.5018 11.2897 12.4509 11.2214L11.7129 10.2099C11.357 9.7223 11.1672 9.14696 11.1683 8.55837V5.21464C11.1683 4.19117 10.7293 3.20963 9.94783 2.48593C9.16638 1.76223 8.10651 1.35566 7.00138 1.35566Z" fill="white"/>
</svg>
