<svg width="16" height="16" viewBox="0 0 16 16" fill="none" xmlns="http://www.w3.org/2000/svg">
<path d="M9.6593 16H6.3352C6.15153 16 5.97539 15.9286 5.84551 15.8014C5.71564 15.6743 5.64268 15.5018 5.64268 15.322V13.8847C5.64622 13.6911 5.59674 13.5001 5.49937 13.3315C5.40201 13.1629 5.2603 13.0229 5.08899 12.926C4.91767 12.8291 4.72299 12.7789 4.52516 12.7806C4.32733 12.7823 4.13357 12.8358 3.96401 12.9356L2.69808 13.6542C2.53932 13.7438 2.35075 13.7681 2.1737 13.7219C1.99665 13.6756 1.84554 13.5626 1.75348 13.4075L0.0914315 10.5925C0.0448893 10.5162 0.0147425 10.4314 0.00283512 10.3433C-0.00907229 10.2551 -0.00248999 10.1655 0.0221794 10.08C0.0692654 9.90634 0.184838 9.75808 0.343509 9.6678L1.61775 8.94915C1.79093 8.85534 1.93529 8.71783 2.03582 8.55091C2.13634 8.384 2.18936 8.19377 2.18936 8C2.18936 7.80623 2.13634 7.616 2.03582 7.44908C1.93529 7.28216 1.79093 7.14465 1.61775 7.05085L0.346279 6.3322C0.187608 6.24191 0.0720355 6.09366 0.0249495 5.92C0.000280093 5.83445 -0.0063022 5.74487 0.00560521 5.65674C0.0175126 5.56861 0.0476594 5.48379 0.0942016 5.40746L1.75625 2.59254C1.84831 2.43743 1.99942 2.32436 2.17647 2.27811C2.35352 2.23185 2.54209 2.25618 2.70085 2.34576L3.97232 3.06441C4.14188 3.16418 4.33564 3.21769 4.53347 3.21938C4.7313 3.22107 4.92598 3.17088 5.0973 3.07401C5.26861 2.97714 5.41032 2.83714 5.50768 2.66854C5.60505 2.49995 5.65453 2.3089 5.65099 2.11525V0.677966C5.65099 0.498627 5.72357 0.326593 5.85284 0.199528C5.98212 0.0724623 6.15755 0.000717356 6.34074 0L9.66484 0C9.84851 0 10.0247 0.0714284 10.1545 0.198572C10.2844 0.325715 10.3574 0.498158 10.3574 0.677966V2.11525C10.3556 2.30731 10.406 2.49639 10.5033 2.66315C10.6006 2.82991 10.7415 2.96838 10.9114 3.06441C11.0807 3.15703 11.2714 3.20567 11.4654 3.20567C11.6594 3.20567 11.8501 3.15703 12.0194 3.06441L13.2964 2.34576C13.4552 2.25618 13.6437 2.23185 13.8208 2.27811C13.9978 2.32436 14.149 2.43743 14.241 2.59254L15.9031 5.40746C15.9946 5.56288 16.0194 5.74748 15.9722 5.92081C15.9249 6.09414 15.8094 6.24207 15.651 6.3322L14.3823 7.05085C14.2091 7.14465 14.0647 7.28216 13.9642 7.44908C13.8637 7.616 13.8107 7.80623 13.8107 8C13.8107 8.19377 13.8637 8.384 13.9642 8.55091C14.0647 8.71783 14.2091 8.85534 14.3823 8.94915L15.6538 9.6678C15.8122 9.75792 15.9277 9.90585 15.9749 10.0792C16.0222 10.2525 15.9973 10.4371 15.9058 10.5925L14.2438 13.4075C14.1517 13.5626 14.0006 13.6756 13.8236 13.7219C13.6465 13.7681 13.458 13.7438 13.2992 13.6542L12.0305 12.9356C11.8612 12.843 11.6704 12.7943 11.4765 12.7943C11.2825 12.7943 11.0918 12.843 10.9225 12.9356C10.7525 13.0316 10.6117 13.1701 10.5144 13.3368C10.417 13.5036 10.3667 13.6927 10.3684 13.8847V15.322C10.3685 15.4124 10.35 15.502 10.3142 15.5853C10.2783 15.6686 10.2258 15.7441 10.1598 15.8073C10.0937 15.8704 10.0154 15.92 9.92942 15.9531C9.84347 15.9862 9.75163 16.0022 9.6593 16ZM7.03326 14.6441H8.97232V13.8847C8.96885 13.4531 9.08237 13.0283 9.30132 12.6536C9.52027 12.2789 9.8368 11.9678 10.2186 11.7519C10.6005 11.5361 11.034 11.4232 11.4749 11.4249C11.9158 11.4265 12.3484 11.5426 12.7286 11.7614L13.3989 12.141L14.3657 10.5139L13.6953 10.1342C13.3116 9.92136 12.9925 9.61267 12.7705 9.23963C12.5484 8.8666 12.4314 8.44259 12.4314 8.01085C12.4314 7.5791 12.5484 7.15509 12.7705 6.78206C12.9925 6.40902 13.3116 6.10033 13.6953 5.88746L14.3657 5.5078L13.3989 3.88068L12.7286 4.26034C12.3467 4.48145 11.9114 4.59878 11.4677 4.60023C11.0241 4.60167 10.588 4.48717 10.2046 4.26856C9.82125 4.04994 9.5044 3.73512 9.2868 3.35659C9.0692 2.97806 8.95872 2.54954 8.96678 2.11525V1.35593H7.02772V2.11525C7.03119 2.5469 6.91767 2.97173 6.69872 3.34642C6.47977 3.7211 6.16324 4.03223 5.78139 4.24809C5.39955 4.46394 4.96606 4.5768 4.52514 4.57514C4.08421 4.57348 3.65162 4.45737 3.27149 4.23864L2.60113 3.85898L1.63437 5.4861L2.30473 5.86576C2.68841 6.07863 3.00754 6.38733 3.22957 6.76036C3.45161 7.13339 3.56859 7.55741 3.56859 7.98915C3.56859 8.42089 3.45161 8.84491 3.22957 9.21794C3.00754 9.59097 2.68841 9.89967 2.30473 10.1125L1.63437 10.4922L2.60113 12.1193L3.27149 11.7397C3.65338 11.5185 4.08863 11.4012 4.5323 11.3998C4.97598 11.3983 5.41202 11.5128 5.7954 11.7314C6.17879 11.9501 6.49563 12.2649 6.71324 12.6434C6.93084 13.0219 7.04131 13.4505 7.03326 13.8847V14.6441Z" fill="white"/>
</svg>
