<svg width="14" height="16" viewBox="0 0 14 16" fill="none" xmlns="http://www.w3.org/2000/svg">
<path d="M11.3593 15.9994H3.05807C2.24746 15.998 1.47047 15.6792 0.89729 15.113C0.324106 14.5467 0.0014514 13.7791 0 12.9784L0 1.85961C0 1.6798 0.0723043 1.50736 0.201007 1.38021C0.329709 1.25307 0.504268 1.18164 0.68628 1.18164C0.868293 1.18164 1.04285 1.25307 1.17155 1.38021C1.30026 1.50736 1.37256 1.6798 1.37256 1.85961V12.9784C1.37256 13.42 1.55014 13.8435 1.86623 14.1558C2.18233 14.468 2.61104 14.6435 3.05807 14.6435H11.3593C11.5413 14.6435 11.7159 14.7149 11.8446 14.842C11.9733 14.9692 12.0456 15.1416 12.0456 15.3214C12.0456 15.5012 11.9733 15.6737 11.8446 15.8008C11.7159 15.928 11.5413 15.9994 11.3593 15.9994Z" fill="#616576"/>
<path d="M13.3139 4.82716H9.80017C9.61816 4.82716 9.4436 4.75573 9.3149 4.62859C9.1862 4.50144 9.11389 4.329 9.11389 4.14919V0.677972C9.11389 0.498163 9.1862 0.325718 9.3149 0.198573C9.4436 0.071429 9.61816 0 9.80017 0C9.98219 0 10.1567 0.071429 10.2854 0.198573C10.4141 0.325718 10.4865 0.498163 10.4865 0.677972V3.47122H13.3139C13.4959 3.47122 13.6705 3.54265 13.7992 3.66979C13.9279 3.79693 14.0002 3.96938 14.0002 4.14919C14.0002 4.329 13.9279 4.50144 13.7992 4.62859C13.6705 4.75573 13.4959 4.82716 13.3139 4.82716Z" fill="#616576"/>
<path d="M11.557 13.0713H5.40788C4.76014 13.0706 4.13913 12.8161 3.68111 12.3636C3.22308 11.9111 2.96545 11.2976 2.96472 10.6577V2.41358C2.96545 1.77368 3.22308 1.16019 3.68111 0.707714C4.13913 0.255235 4.76014 0.000717787 5.40788 6.21682e-09L10.6785 6.21682e-09C10.8606 -2.42869e-05 11.0353 0.071149 11.1644 0.197968L13.7997 2.80138C13.9281 2.92894 14.0001 3.10151 14.0001 3.28138V10.6577C13.9994 11.2976 13.7417 11.9111 13.2837 12.3636C12.8257 12.8161 12.2047 13.0706 11.557 13.0713ZM5.40788 1.35594C5.12416 1.35666 4.85227 1.46832 4.65165 1.66651C4.45103 1.8647 4.33801 2.1333 4.33728 2.41358V10.6577C4.33801 10.938 4.45103 11.2066 4.65165 11.4048C4.85227 11.603 5.12416 11.7146 5.40788 11.7154H11.557C11.8407 11.7146 12.1126 11.603 12.3132 11.4048C12.5138 11.2066 12.6268 10.938 12.6276 10.6577V3.56342L10.3958 1.35594H5.40788Z" fill="#616576"/>
</svg>
