<svg width="12" height="8" viewBox="0 0 12 8" fill="none" xmlns="http://www.w3.org/2000/svg">
<path d="M11.9999 1.30743C11.9997 1.52157 11.9171 1.72687 11.7703 1.8782L6.55293 7.26281C6.40619 7.41407 6.20728 7.49902 5.99989 7.49902C5.79249 7.49902 5.59358 7.41407 5.44684 7.26281L0.229453 1.8782C0.0912126 1.72508 0.0159536 1.52257 0.0195308 1.31332C0.0231081 1.10408 0.105242 0.904432 0.24863 0.756449C0.392017 0.608465 0.585462 0.523699 0.788211 0.520007C0.99096 0.516315 1.18718 0.593986 1.33554 0.736657L5.99989 5.5505L10.6642 0.736656C10.811 0.585402 11.0099 0.500444 11.2173 0.500444C11.4247 0.500444 11.6236 0.585402 11.7703 0.736656C11.9171 0.887982 11.9997 1.09328 11.9999 1.30743Z" fill="#616576"/>
</svg>
