<svg width="135" height="134" viewBox="0 0 135 134" fill="none" xmlns="http://www.w3.org/2000/svg">
<circle cx="67.5" cy="67" r="67" fill="#E3E3EC"/>
<g clip-path="url(#clip0)">
<path d="M76.7433 83.9999H57.2622C56.6915 84.0016 56.1279 83.8711 55.6141 83.6181C55.1003 83.3652 54.6497 82.9966 54.2964 82.5401C53.9526 82.1016 53.7112 81.5893 53.5903 81.0418C53.4695 80.4943 53.4724 79.9261 53.5989 79.3799C54.3136 76.3066 56.0257 73.5688 58.4583 71.6097C60.8909 69.6505 63.9014 68.5847 67.0028 68.5847C70.1041 68.5847 73.1147 69.6505 75.5472 71.6097C77.9798 73.5688 79.692 76.3066 80.4067 79.3799C80.5324 79.9265 80.5344 80.495 80.4126 81.0425C80.2908 81.59 80.0484 82.1021 79.7036 82.5401C79.3515 82.9964 78.9019 83.3651 78.389 83.618C77.876 83.871 77.3132 84.0016 76.7433 83.9999ZM67 71.376C64.5114 71.3628 62.0921 72.2106 60.1383 73.7805C58.1846 75.3505 56.8123 77.5496 56.2462 80.0175C56.2167 80.1544 56.2177 80.2963 56.2491 80.4328C56.2804 80.5692 56.3414 80.6968 56.4274 80.8062C56.5272 80.9334 56.6544 81.0354 56.7992 81.1043C56.944 81.1731 57.1025 81.207 57.2622 81.2033H76.7433C76.8985 81.2032 77.0518 81.1674 77.1915 81.0987C77.3313 81.0299 77.4541 80.9299 77.5507 80.8062C77.6382 80.6976 77.7 80.5701 77.7314 80.4333C77.7628 80.2966 77.763 80.1544 77.7319 80.0175C77.1666 77.5533 75.7976 75.3571 73.8483 73.7875C71.8991 72.218 69.4849 71.3679 67 71.376Z" fill="#484BEB"/>
<path d="M67 65.8892C65.5542 65.8892 64.1409 65.4525 62.9387 64.6345C61.7365 63.8165 60.7996 62.6538 60.2463 61.2935C59.693 59.9332 59.5482 58.4363 59.8303 56.9922C60.1124 55.5481 60.8086 54.2216 61.8309 53.1805C62.8533 52.1393 64.1558 51.4303 65.5739 51.143C66.9919 50.8558 68.4618 51.0032 69.7975 51.5667C71.1333 52.1302 72.275 53.0843 73.0783 54.3086C73.8815 55.5328 74.3102 56.9722 74.3102 58.4446C74.3088 60.4185 73.5381 62.3112 72.1675 63.7071C70.7969 65.1029 68.9384 65.8877 67 65.8892ZM67 53.7966C66.0973 53.7966 65.2149 54.0692 64.4644 54.5799C63.7138 55.0907 63.1288 55.8166 62.7834 56.6659C62.4379 57.5152 62.3475 58.4497 62.5237 59.3514C62.6998 60.253 63.1344 61.0812 63.7727 61.7312C64.411 62.3812 65.2243 62.8239 66.1096 63.0032C66.995 63.1826 67.9127 63.0905 68.7466 62.7387C69.5806 62.3869 70.2934 61.7912 70.7949 61.0269C71.2964 60.2625 71.5641 59.3639 71.5641 58.4446C71.5627 57.2123 71.0813 56.0309 70.2257 55.1596C69.3701 54.2883 68.2101 53.7981 67 53.7966Z" fill="#484BEB"/>
</g>
<defs>
<clipPath id="clip0">
<rect width="27" height="33" fill="white" transform="translate(53.5 51)"/>
</clipPath>
</defs>
</svg>
