<svg width="252" height="184" viewBox="0 0 252 184" fill="none" xmlns="http://www.w3.org/2000/svg">
<path d="M231.683 6.45253e-07H20.317C17.7144 -0.000663755 15.1372 0.511765 12.7326 1.50801C10.328 2.50426 8.14309 3.9648 6.30278 5.80618C4.46247 7.64757 3.00279 9.83373 2.00713 12.2397C1.01146 14.6458 0.499337 17.2245 0.500001 19.8286V118.365C0.500001 123.624 2.58786 128.667 6.30426 132.386C10.0207 136.104 15.0612 138.193 20.317 138.193H74.8453L121.454 174.139C122.757 175.144 124.357 175.69 126.003 175.69C127.648 175.69 129.248 175.144 130.551 174.139L177.155 138.193H231.683C236.939 138.193 241.979 136.104 245.696 132.386C249.412 128.667 251.5 123.624 251.5 118.365V19.8286C251.501 17.2245 250.989 14.6458 249.993 12.2397C248.997 9.83373 247.538 7.64757 245.697 5.80618C243.857 3.9648 241.672 2.50426 239.267 1.50801C236.863 0.511765 234.286 -0.000663755 231.683 6.45253e-07Z" fill="white"/>
<path d="M127.152 113.801C151.438 113.801 171.138 94.1013 171.152 69.8008C171.166 45.5003 151.49 25.8008 127.204 25.8008C102.917 25.8008 83.2179 45.5003 83.2037 69.8008C83.1894 94.1013 102.866 113.801 127.152 113.801Z" fill="url(#paint0_linear)"/>
<g opacity="0.41">
<path opacity="0.41" d="M170.763 69.8001C170.766 65.1661 170.035 60.561 168.596 56.1565L159.262 45.1831L135.977 67.7826L128.121 81.8304L112.393 68.9434L116.679 80.2283L123.454 90.2042L118.216 99.5681L130.81 113.49C141.719 112.525 151.871 107.504 159.266 99.4174C166.661 91.3306 170.763 80.7642 170.763 69.8001Z" fill="url(#paint1_linear)"/>
</g>
<path d="M144.151 51.8349C143.917 52.0352 143.668 52.2565 143.418 52.4868C139.712 55.3754 134.638 61.2512 131.274 66.1134C129.811 68.2387 128.481 70.4537 127.292 72.7457C126.698 73.8641 125.17 76.6331 123.995 78.7651C122.541 76.5703 120.233 73.7953 120.043 73.8252C119.698 73.3827 119.336 72.9491 118.957 72.5394C117.043 70.4731 115.049 68.9511 112.841 68.676C110.613 67.9763 100.676 71.8427 103.168 72.8863C104.885 73.6417 106.541 74.5305 108.12 75.5446C110.097 76.8872 111.705 78.3136 113.901 82.0365C116.274 86.0524 117.209 89.1293 117.877 90.774C117.877 90.774 119.785 96.9728 123.654 94.0005C125.731 92.4007 126.621 90.4301 127.345 89.0755L127.327 89.1114C127.434 88.9021 127.559 88.6509 127.645 88.4685L129.455 84.3001V84.324C129.579 84.0758 129.71 83.7947 129.829 83.5166C132.704 76.7377 137.84 68.7478 141.43 63.9245C143.172 61.5831 145.849 58.8829 148.184 56.5864C148.213 56.5625 152.077 53.2762 153.228 51.2847C154.379 49.2932 146.356 49.957 144.151 51.8349Z" fill="white"/>
<defs>
<linearGradient id="paint0_linear" x1="83.2037" y1="69.8008" x2="171.152" y2="69.8524" gradientUnits="userSpaceOnUse">
<stop stop-color="#4A46EF"/>
<stop offset="0.489583" stop-color="#387FC1"/>
<stop offset="1" stop-color="#36BCCC"/>
</linearGradient>
<linearGradient id="paint1_linear" x1="112.393" y1="79.3364" x2="170.763" y2="79.3364" gradientUnits="userSpaceOnUse">
<stop stop-color="#4A46EF"/>
<stop offset="0.489583" stop-color="#387FC1"/>
<stop offset="1" stop-color="#36BCCC"/>
</linearGradient>
</defs>
</svg>
