<svg width="16" height="16" viewBox="0 0 16 16" fill="none" xmlns="http://www.w3.org/2000/svg">
<path d="M4.66667 0H2.66667C1.95942 0 1.28115 0.280952 0.781049 0.781049C0.280952 1.28115 0 1.95942 0 2.66667L0 4.66667C0 5.37391 0.280952 6.05219 0.781049 6.55229C1.28115 7.05238 1.95942 7.33333 2.66667 7.33333H4.66667C5.37391 7.33333 6.05219 7.05238 6.55229 6.55229C7.05238 6.05219 7.33333 5.37391 7.33333 4.66667V2.66667C7.33333 1.95942 7.05238 1.28115 6.55229 0.781049C6.05219 0.280952 5.37391 0 4.66667 0V0ZM6 4.66667C6 5.02029 5.85952 5.35943 5.60948 5.60948C5.35943 5.85952 5.02029 6 4.66667 6H2.66667C2.31304 6 1.97391 5.85952 1.72386 5.60948C1.47381 5.35943 1.33333 5.02029 1.33333 4.66667V2.66667C1.33333 2.31304 1.47381 1.97391 1.72386 1.72386C1.97391 1.47381 2.31304 1.33333 2.66667 1.33333H4.66667C5.02029 1.33333 5.35943 1.47381 5.60948 1.72386C5.85952 1.97391 6 2.31304 6 2.66667V4.66667Z" fill="#616576"/>
<path d="M4.66667 8.66699H2.66667C1.95942 8.66699 1.28115 8.94794 0.781049 9.44804C0.280952 9.94814 0 10.6264 0 11.3337L0 13.3337C0 14.0409 0.280952 14.7192 0.781049 15.2193C1.28115 15.7194 1.95942 16.0003 2.66667 16.0003H4.66667C5.37391 16.0003 6.05219 15.7194 6.55229 15.2193C7.05238 14.7192 7.33333 14.0409 7.33333 13.3337V11.3337C7.33333 10.6264 7.05238 9.94814 6.55229 9.44804C6.05219 8.94794 5.37391 8.66699 4.66667 8.66699ZM6 13.3337C6 13.6873 5.85952 14.0264 5.60948 14.2765C5.35943 14.5265 5.02029 14.667 4.66667 14.667H2.66667C2.31304 14.667 1.97391 14.5265 1.72386 14.2765C1.47381 14.0264 1.33333 13.6873 1.33333 13.3337V11.3337C1.33333 10.98 1.47381 10.6409 1.72386 10.3909C1.97391 10.1408 2.31304 10.0003 2.66667 10.0003H4.66667C5.02029 10.0003 5.35943 10.1408 5.60948 10.3909C5.85952 10.6409 6 10.98 6 11.3337V13.3337Z" fill="#616576"/>
<path d="M13.3334 8.66699H11.3334C10.6262 8.66699 9.94789 8.94794 9.4478 9.44804C8.9477 9.94814 8.66675 10.6264 8.66675 11.3337V13.3337C8.66675 14.0409 8.9477 14.7192 9.4478 15.2193C9.94789 15.7194 10.6262 16.0003 11.3334 16.0003H13.3334C14.0407 16.0003 14.7189 15.7194 15.219 15.2193C15.7191 14.7192 16.0001 14.0409 16.0001 13.3337V11.3337C16.0001 10.6264 15.7191 9.94814 15.219 9.44804C14.7189 8.94794 14.0407 8.66699 13.3334 8.66699ZM14.6667 13.3337C14.6667 13.6873 14.5263 14.0264 14.2762 14.2765C14.0262 14.5265 13.687 14.667 13.3334 14.667H11.3334C10.9798 14.667 10.6407 14.5265 10.3906 14.2765C10.1406 14.0264 10.0001 13.6873 10.0001 13.3337V11.3337C10.0001 10.98 10.1406 10.6409 10.3906 10.3909C10.6407 10.1408 10.9798 10.0003 11.3334 10.0003H13.3334C13.687 10.0003 14.0262 10.1408 14.2762 10.3909C14.5263 10.6409 14.6667 10.98 14.6667 11.3337V13.3337Z" fill="#616576"/>
<path d="M9.33341 4.66699H11.3334V6.66699C11.3334 6.8438 11.4037 7.01337 11.5287 7.1384C11.6537 7.26342 11.8233 7.33366 12.0001 7.33366C12.1769 7.33366 12.3465 7.26342 12.4715 7.1384C12.5965 7.01337 12.6667 6.8438 12.6667 6.66699V4.66699H14.6667C14.8436 4.66699 15.0131 4.59675 15.1382 4.47173C15.2632 4.34671 15.3334 4.17714 15.3334 4.00033C15.3334 3.82351 15.2632 3.65395 15.1382 3.52892C15.0131 3.4039 14.8436 3.33366 14.6667 3.33366H12.6667V1.33366C12.6667 1.15685 12.5965 0.987279 12.4715 0.862254C12.3465 0.73723 12.1769 0.666992 12.0001 0.666992C11.8233 0.666992 11.6537 0.73723 11.5287 0.862254C11.4037 0.987279 11.3334 1.15685 11.3334 1.33366V3.33366H9.33341C9.1566 3.33366 8.98703 3.4039 8.86201 3.52892C8.73699 3.65395 8.66675 3.82351 8.66675 4.00033C8.66675 4.17714 8.73699 4.34671 8.86201 4.47173C8.98703 4.59675 9.1566 4.66699 9.33341 4.66699Z" fill="#616576"/>
</svg>
